:SAMPLES-PER-SECOND 30
:FULLY-SPECIFIED
:DEGREES
212
root  60.6024 35.6243 17.5877 -140.008 3.9872 178.472
RightUpLeg  -78.5483 -19.0839 25.9386
RightLeg  44.9608 -7.09201 -7.83963
RightFoot  -11.4201 -0.0831389 -8.92432
RightToes  0.00048216 0.542163 -0.142577
Spine  71.7915 -5.0601 4.99711
Spine1  4.71744 0.0263369 -8.16568
HEad  -44.4985 -0.751342 -7.40844
LeftShoulder1  6.90646 -27.2989 -15.4346
LeftArm  -74.5113 -77.0988 14.9369
LeftForeArm  11.1748 -17.0524 -2.7067
LeftHand  -0.25398 0.0180481 5.50724
RightShoulder  2.29561 11.0997 8.26921
RightArm  -77.2768 60.0649 -24.0672
RightForeArm  -12.8171 3.61911 0.533002
RightHand  0.416058 9.89257 2.62662
LeftUpLeg  -81.3981 22.4974 -29.1848
LeftLeg  40.5388 -2.95769 -2.32214
LeftFoot  -4.38615 -0.468873 8.13711
LeftToes  1.06246e-005 4.65856e-005 -8.18501e-006
213
root  60.6974 35.6151 17.532 -139.848 3.79457 178.345
RightUpLeg  -78.7091 -19.036 25.9862
RightLeg  45.1668 -7.25609 -8.06687
RightFoot  -11.6567 -0.104381 -9.35448
RightToes  0.00048216 0.542163 -0.142577
Spine  71.793 -5.12899 4.80276
Spine1  4.89524 -0.248921 -8.08343
HEad  -44.417 -0.699266 -7.49925
LeftShoulder1  6.94968 -27.9029 -15.1004
LeftArm  -75.5548 -76.0297 14.914
LeftForeArm  12.6124 -18.1326 -2.75331
LeftHand  -0.25398 0.0180481 5.50724
RightShoulder  2.23017 11.2376 7.60617
RightArm  -76.8206 59.6755 -23.5519
RightForeArm  -12.8609 3.8585 0.524016
RightHand  0.41988 9.72657 2.69406
LeftUpLeg  -81.4745 22.3747 -29.0985
LeftLeg  40.5794 -2.94255 -2.31213
LeftFoot  -4.28606 -0.459555 7.86123
LeftToes  1.06246e-005 4.65856e-005 -8.18501e-006
214
root  60.7971 35.6052 17.4804 -139.784 3.74895 178.33
RightUpLeg  -78.699 -18.8838 26.029
RightLeg  45.3618 -7.43369 -8.30777
RightFoot  -11.8786 -0.126165 -9.82566
RightToes  0.00048216 0.542163 -0.142577
Spine  71.8718 -4.95468 4.58759
Spine1  5.04825 -0.35016 -7.72615
HEad  -44.08 -0.75435 -7.67031
LeftShoulder1  7.13769 -28.2279 -15.491
LeftArm  -75.6192 -75.3626 15.4065
LeftForeArm  13.4791 -19.241 -3.08087
LeftHand  -0.25398 0.0180481 5.50724
RightShoulder  2.13577 11.2249 6.90078
RightArm  -76.2468 59.3299 -22.5799
RightForeArm  -13.5286 4.62146 0.634032
RightHand  0.356013 9.34601 2.28193
LeftUpLeg  -81.571 22.46 -29.0022
LeftLeg  40.6922 -2.91304 -2.2952
LeftFoot  -4.25373 -0.448791 7.65014
LeftToes  1.06246e-005 4.65856e-005 -8.18501e-006
215
root  60.891 35.594 17.4442 -139.729 3.77446 178.287
RightUpLeg  -78.7419 -18.7966 26.1428
RightLeg  45.5367 -7.48644 -8.41355
RightFoot  -11.9912 -0.138233 -10.1098
RightToes  0.00048216 0.542163 -0.142577
Spine  71.8533 -4.73484 4.39985
Spine1  5.2432 -0.40702 -7.3251
HEad  -43.6581 -0.738888 -7.98307
LeftShoulder1  7.26807 -28.1075 -16.0328
LeftArm  -74.9127 -75.2271 16.1386
LeftForeArm  13.901 -20.1288 -3.4223
LeftHand  -0.25398 0.0180481 5.50724
RightShoulder  2.05761 11.0153 6.53283
RightArm  -76.2481 59.4448 -22.0763
RightForeArm  -14.6465 5.23317 0.763745
RightHand  0.174631 8.87104 0.918916
LeftUpLeg  -81.6281 22.514 -28.8858
LeftLeg  40.7602 -2.83869 -2.2329
LeftFoot  -4.25897 -0.438711 7.4875
LeftToes  1.06246e-005 4.65856e-005 -8.18501e-006
216
root  60.9764 35.5846 17.4279 -139.639 3.74965 178.13
RightUpLeg  -78.9562 -18.8565 26.3371
RightLeg  45.7084 -7.45631 -8.43121
RightFoot  -12.0244 -0.142535 -10.2961
RightToes  0.00048216 0.542163 -0.142577
Spine  71.6879 -4.67095 4.31024
Spine1  5.49621 -0.518596 -7.07905
HEad  -43.3761 -0.60304 -8.17336
LeftShoulder1  7.23877 -27.8954 -16.1046
LeftArm  -75.4456 -75.3588 17.1565
LeftForeArm  14.573 -20.3799 -3.47824
LeftHand  -0.25398 0.0180481 5.50724
RightShoulder  2.01295 10.8472 6.3698
RightArm  -76.7948 59.7956 -22.2814
RightForeArm  -15.4254 5.26686 0.757481
RightHand  -0.0547458 8.55312 -0.945188
LeftUpLeg  -81.6075 22.3899 -28.7566
LeftLeg  40.7184 -2.76392 -2.16065
LeftFoot  -4.22102 -0.429923 7.28342
LeftToes  1.06246e-005 4.65856e-005 -8.18501e-006
217
root  61.0611 35.5808 17.4273 -139.653 3.7037 177.958
RightUpLeg  -79.1049 -18.9923 26.5302
RightLeg  45.858 -7.43207 -8.44839
RightFoot  -12.0899 -0.149912 -10.4529
RightToes  0.00048216 0.542163 -0.142577
Spine  71.6332 -4.68756 4.25095
Spine1  5.64507 -0.610432 -6.94972
HEad  -43.2514 -0.473317 -8.07562
LeftShoulder1  7.10898 -27.7364 -15.7856
LeftArm  -77.6484 -75.6648 18.2633
LeftForeArm  15.3435 -19.8722 -3.23595
LeftHand  -0.25398 0.0180481 5.50724
RightShoulder  1.98069 10.8641 6.09878
RightArm  -77.4516 59.9961 -22.5441
RightForeArm  -15.3172 4.95006 0.553177
RightHand  -0.180431 8.33881 -2.00778
LeftUpLeg  -81.47 22.2638 -28.5574
LeftLeg  40.6541 -2.69157 -2.08878
LeftFoot  -4.1363 -0.417744 7.01409
LeftToes  1.06246e-005 4.65856e-005 -8.18501e-006
218
root  61.1429 35.5754 17.4382 -139.875 3.73611 177.868
RightUpLeg  -79.016 -19.1388 26.6658
RightLeg  45.9839 -7.37956 -8.42805
RightFoot  -12.2141 -0.163021 -10.5707
RightToes  0.00048216 0.542163 -0.142577
Spine  71.8259 -4.65549 4.15413
Spine1  5.56366 -0.637832 -6.82911
HEad  -43.0997 -0.385392 -7.86145
LeftShoulder1  6.93633 -27.2544 -15.5754
LeftArm  -79.5204 -76.3617 19.0054
LeftForeArm  15.4449 -18.9546 -2.88957
LeftHand  -0.25398 0.0180481 5.50724
RightShoulder  1.96045 10.9686 5.82874
RightArm  -77.8541 60.1058 -22.3457
RightForeArm  -14.8935 4.81172 0.337613
RightHand  -0.203394 8.02474 -2.23535
LeftUpLeg  -81.1879 22.238 -28.1418
LeftLeg  40.6924 -2.49115 -1.90708
LeftFoot  -4.08587 -0.401531 6.71142
LeftToes  1.06246e-005 4.65856e-005 -8.18501e-006
219
root  61.2065 35.5586 17.4638 -140.195 3.85661 177.806
RightUpLeg  -78.8745 -19.3098 26.7656
RightLeg  46.1352 -7.22787 -8.30776
RightFoot  -12.322 -0.175004 -10.7189
RightToes  0.00048216 0.542163 -0.142577
Spine  72.019 -4.60778 4.09929
Spine1  5.39911 -0.663039 -6.69931
HEad  -42.8337 -0.233294 -7.79442
LeftShoulder1  6.77881 -26.2781 -15.8266
LeftArm  -79.9105 -77.5109 19.7964
LeftForeArm  14.8175 -17.8537 -2.68117
LeftHand  -0.25398 0.0180481 5.50724
RightShoulder  1.97353 11.1002 5.79159
RightArm  -77.7401 60.2593 -21.9156
RightForeArm  -15.105 5.01704 0.363418
RightHand  -0.301663 7.68088 -3.13924
LeftUpLeg  -80.8079 22.1472 -27.495
LeftLeg  40.833 -2.08649 -1.54316
LeftFoot  -4.10117 -0.382568 6.41229
LeftToes  1.06246e-005 4.65856e-005 -8.18501e-006
220
root  61.2446 35.5356 17.5123 -140.501 4.00356 177.678
RightUpLeg  -78.8538 -19.5248 26.824
RightLeg  46.3227 -7.0232 -8.13888
RightFoot  -12.3773 -0.182264 -10.9048
RightToes  0.00048216 0.542163 -0.142577
Spine  71.9909 -4.62959 4.17954
Spine1  5.37352 -0.703582 -6.59902
HEad  -42.5966 0.00434516 -7.95211
LeftShoulder1  6.71352 -25.2916 -16.4444
LeftArm  -80.437 -78.7375 21.982
LeftForeArm  14.1742 -16.4004 -2.64624
LeftHand  -0.25398 0.0180481 5.50724
RightShoulder  2.02217 11.3123 5.94267
RightArm  -77.1689 60.3584 -21.8245
RightForeArm  -15.9581 5.18158 0.606496
RightHand  -0.539647 7.53114 -5.29247
LeftUpLeg  -80.3927 21.8947 -26.8227
LeftLeg  40.9568 -1.60634 -1.10482
LeftFoot  -4.10978 -0.364667 6.13774
LeftToes  1.06246e-005 4.65856e-005 -8.18501e-006
221
root  61.2644 35.5211 17.591 -140.86 4.15077 177.53
RightUpLeg  -78.784 -19.7348 26.7874
RightLeg  46.4479 -6.88603 -8.02412
RightFoot  -12.4231 -0.187731 -10.9881
RightToes  0.00048216 0.542163 -0.142577
Spine  71.8538 -4.71081 4.34237
Spine1  5.48012 -0.71222 -6.54503
HEad  -42.5247 0.26431 -8.28667
LeftShoulder1  6.69978 -24.7616 -16.8743
LeftArm  -82.9098 -79.5444 25.9807
LeftForeArm  14.0398 -14.4226 -2.61048
LeftHand  -0.25398 0.0180481 5.50724
RightShoulder  2.07968 11.5332 6.14697
RightArm  -76.8486 60.548 -22.3419
RightForeArm  -16.7567 4.85066 0.788088
RightHand  -0.780051 7.42888 -7.50483
LeftUpLeg  -79.9486 21.6641 -26.2916
LeftLeg  40.9855 -1.20789 -0.735193
LeftFoot  -4.04984 -0.353965 5.9363
LeftToes  1.06246e-005 4.65856e-005 -8.18501e-006
222
root  61.272 35.5223 17.7015 -141.372 4.31207 177.513
RightUpLeg  -78.4123 -19.869 26.6926
RightLeg  46.3675 -6.8534 -7.96634
RightFoot  -12.4509 -0.190389 -10.9642
RightToes  0.00048216 0.542163 -0.142577
Spine  71.7236 -4.79179 4.51602
Spine1  5.60869 -0.661346 -6.52699
HEad  -42.4979 0.55246 -8.75653
LeftShoulder1  6.57767 -24.6507 -16.5095
LeftArm  -85.8932 -79.7341 29.776
LeftForeArm  14.3701 -12.1247 -2.43228
LeftHand  -0.25398 0.0180481 5.50724
RightShoulder  2.11903 11.5863 6.38567
RightArm  -77.398 61.2623 -23.2743
RightForeArm  -17.3172 3.98491 0.769836
RightHand  -0.946632 7.04283 -9.26253
LeftUpLeg  -79.4706 21.6675 -25.8536
LeftLeg  40.942 -0.893013 -0.440727
LeftFoot  -3.94983 -0.358485 5.91366
LeftToes  1.06246e-005 4.65856e-005 -8.18501e-006
223
root  61.2615 35.5446 17.8398 -142.022 4.47658 177.668
RightUpLeg  -77.7368 -19.9797 26.6656
RightLeg  45.9937 -6.82878 -7.83838
RightFoot  -12.3344 -0.179147 -11.0539
RightToes  0.00048216 0.542163 -0.142577
Spine  71.4956 -4.84032 4.72099
Spine1  5.74506 -0.562293 -6.457
HEad  -42.2488 0.920143 -9.35901
LeftShoulder1  6.33857 -24.7434 -15.5075
LeftArm  -87.0193 -79.5644 31.6076
LeftForeArm  15.1199 -9.86148 -2.21962
LeftHand  -0.25398 0.0180481 5.50724
RightShoulder  2.13391 11.5253 6.56094
RightArm  -78.4008 62.5338 -24.2693
RightForeArm  -18.2691 2.91477 0.7337
RightHand  -1.18442 6.55544 -11.8827
LeftUpLeg  -78.9229 21.8775 -25.4079
LeftLeg  40.7982 -0.605335 -0.171113
LeftFoot  -3.82931 -0.377095 6.09018
LeftToes  1.06246e-005 4.65856e-005 -8.18501e-006
224
root  61.2237 35.6056 17.998 -142.776 4.60696 177.831
RightUpLeg  -76.9011 -20.2779 26.7366
RightLeg  45.3093 -6.67139 -7.4911
RightFoot  -11.9641 -0.142278 -11.3366
RightToes  0.00048216 0.542163 -0.142577
Spine  71.1359 -4.87221 4.95327
Spine1  5.82805 -0.46695 -6.21956
HEad  -41.669 1.35244 -10.1039
LeftShoulder1  6.22919 -24.9586 -14.9003
LeftArm  -86.6154 -79.4955 32.3
LeftForeArm  16.38 -7.71792 -2.20941
LeftHand  -0.25398 0.0180481 5.50724
RightShoulder  2.14661 11.6054 6.57069
RightArm  -79.0145 63.9718 -25.2004
RightForeArm  -20.2367 1.91252 0.930237
RightHand  -1.65108 6.59172 -16.263
LeftUpLeg  -78.1286 22.0904 -24.9553
LeftLeg  40.3655 -0.345928 0.0716339
LeftFoot  -3.59691 -0.403983 6.28296
LeftToes  1.06246e-005 4.65856e-005 -8.18501e-006
225
root  61.1573 35.7227 18.1659 -143.647 4.69908 177.841
RightUpLeg  -75.954 -20.9182 26.8119
RightLeg  44.3271 -6.31854 -6.88326
RightFoot  -11.3805 -0.0805725 -11.6111
RightToes  0.00048216 0.542163 -0.142577
Spine  70.7891 -4.92457 5.11258
Spine1  5.69328 -0.473997 -5.8217
HEad  -40.9364 1.84507 -10.9984
LeftShoulder1  6.40917 -25.2493 -15.3341
LeftArm  -85.7828 -79.7199 32.6706
LeftForeArm  17.4988 -5.67193 -2.41367
LeftHand  -0.25398 0.0180481 5.50724
RightShoulder  2.17078 11.8172 6.52639
RightArm  -79.3908 65.5584 -26.0451
RightForeArm  -22.8455 0.998681 1.30689
RightHand  -2.30771 7.35255 -21.2024
LeftUpLeg  -76.8761 22.154 -24.5031
LeftLeg  39.454 -0.084749 0.307737
LeftFoot  -3.15742 -0.434828 6.33859
LeftToes  1.06246e-005 4.65856e-005 -8.18501e-006
226
root  61.0698 35.8921 18.334 -144.619 4.79668 177.752
RightUpLeg  -74.8361 -21.8007 26.839
RightLeg  43.0644 -5.83562 -6.11873
RightFoot  -10.6904 -0.00495542 -11.7435
RightToes  0.00048216 0.542163 -0.142577
Spine  70.4183 -4.97255 5.14484
Spine1  5.43612 -0.616934 -5.34023
HEad  -40.3673 2.50256 -12.1071
LeftShoulder1  6.71002 -25.5078 -16.2377
LeftArm  -83.8227 -79.9917 31.5502
LeftForeArm  17.3355 -3.8837 -2.65659
LeftHand  -0.25398 0.0180481 5.50724
RightShoulder  2.16173 11.814 6.45913
RightArm  -80.2226 67.6924 -26.2459
RightForeArm  -24.7188 0.144369 1.52828
RightHand  -2.9453 8.29248 -25.0483
LeftUpLeg  -75.1598 22.0866 -23.9556
LeftLeg  38.0846 0.276638 0.608864
LeftFoot  -2.57067 -0.472541 6.35718
LeftToes  1.06246e-005 4.65856e-005 -8.18501e-006
